# xmcd CD database file
#
# Track frame offsets:
#	150
#	16831
#	31495
#	50402
#	67280
#	83466
#	102855
#	119543
#	131143
#	144087
#	170824
#	185587
#	203737
#
# Disc length: 3004 seconds
#
# Revision: 0
# Processed by: cddbd v1.5.2PL0 Copyright (c) Steve Scherf et al.
# Submitted via: CDex 1.70beta2
#
DISCID=b60bba0d
DTITLE=Scarlett - Live
DYEAR=2006
DGENRE=Country
TTITLE0=Redneck Woman
TTITLE1=Am I The Only One
TTITLE2=Long Time Gone
TTITLE3=Wide Open Spaces
TTITLE4=Stand By Your Man
TTITLE5=Nothing At All
TTITLE6=Wild Angels
TTITLE7=Some Days You Gotta Dance
TTITLE8=Blue
TTITLE9=Travelling Soldier
TTITLE10=Mama He's Crazy
TTITLE11=Sin Wagon
TTITLE12=Stand Back Up
EXTD=YEAR: 2006
EXTT0=
EXTT1=
EXTT2=
EXTT3=
EXTT4=
EXTT5=
EXTT6=
EXTT7=
EXTT8=
EXTT9=
EXTT10=
EXTT11=
EXTT12=
PLAYORDER=
